# xmcd
#
# Track frame offsets:
#	150
#	12314
#	30996
#	45961
#	57663
#	87856
#	102128
#	113560
#	129698
#	140996
#	174797
#	194688
#	222431
#	250830
#
# Disc length: 3518 seconds
#
# Revision: 0
# Processed by: cddbd v1.5.2PL0 Copyright (c) Steve Scherf et al.
# Submitted via: audiograbber 1.83.01
#
DISCID=c00dbc0e
DTITLE=Γιάννης Μαρκόπουλος - Θίασος τραγουδιών
DYEAR=1900
DGENRE=
TTITLE0=Who pays the ferry man - Ορχηστρικό
TTITLE1=Χίλια μύρια κύματα - Νίκος Ξυλούρης
TTITLE2=Καφενείον η Ελλας - Μελίνα Μερκούρη
TTITLE3=Το πέραμα - Βίκυ Μοσχολιού
TTITLE4=Τα λόγια και τα χρόνια τα χαμένα - Χαράλαμπος Γαργανουράκης
TTITLE5=Παραπονεμένα λόγια - Βασιλική Λαβίνα
TTITLE6=Πρωινό στο Ναύπλιο - Ορχηστρικό
TTITLE7=Πέρα απο την Θάλασσα - Βίκυ Μοσχολιού
TTITLE8=Ζαβαρακατρανέμια - Νίκος Ξυλούρης
TTITLE9=Δεν ήρθα σαν ξένος - Παύλος Σιδηρόπουλος
TTITLE10=Ο τόπος μας ειναι κλειστός - Χορωδία
TTITLE11=Μητέρα μεγαλόψυχη - Νίκος Ξυλούρης
TTITLE12=Λένγκω (Ελλάδα) - Γιάννης Μαρκόπουλος
TTITLE13=Φιλικός χορός - Ορχηστρικό
EXTD=
EXTT0=
EXTT1=
EXTT2=
EXTT3=
EXTT4=
EXTT5=
EXTT6=
EXTT7=
EXTT8=
EXTT9=
EXTT10=
EXTT11=
EXTT12=
EXTT13=
PLAYORDER=
